<svg width="91" height="14" viewBox="0 0 91 14" fill="none" xmlns="http://www.w3.org/2000/svg">
<path d="M3.35156 11.0645H7.77051C8.37598 11.0645 8.67383 10.7666 8.67383 10.1074V6.69434C8.67383 6.10352 8.42969 5.80078 7.92676 5.75195V4.59473C7.92676 2.85156 6.77441 2.00684 5.56348 2.00684C4.34766 2.00684 3.19531 2.85156 3.19531 4.59473V5.77148C2.73145 5.84473 2.44824 6.14258 2.44824 6.69434V10.1074C2.44824 10.7666 2.74609 11.0645 3.35156 11.0645ZM3.98633 4.50195C3.98633 3.36914 4.70898 2.76367 5.56348 2.76367C6.41309 2.76367 7.13574 3.36914 7.13574 4.50195V5.74219L3.98633 5.75195V4.50195Z" fill="#4E8B43"/>
<path d="M19.4844 11.0879C20.9434 11.0879 21.8926 10.0098 21.8926 8.1875V7.61328C21.8926 5.73828 20.9141 4.72461 19.4902 4.72461C18.6875 4.72461 17.9902 5.12891 17.6973 5.68555H17.6445V2.58008H16.3438V11H17.6094V10.0566H17.6621C17.9961 10.6895 18.5996 11.0879 19.4844 11.0879ZM19.1621 10.0156C18.2188 10.0156 17.6328 9.35938 17.6328 8.12305V7.67773C17.6328 6.44727 18.2188 5.79688 19.1621 5.79688C19.9941 5.79688 20.5684 6.45312 20.5684 7.67773V8.13477C20.5684 9.35352 19.9941 10.0156 19.1621 10.0156ZM24.9922 11.0938C25.9062 11.0938 26.4512 10.7129 26.7207 10.2383H26.7676V11H28.0039V6.78125C28.0039 5.39844 26.9785 4.71289 25.6016 4.71289C23.9492 4.71289 23.2461 5.5918 23.1934 6.64648H24.4121C24.459 6.0957 24.8633 5.72656 25.5723 5.72656C26.2988 5.72656 26.7207 6.11914 26.7207 6.82812V7.41992H25.1504C23.7266 7.41992 22.9648 8.11719 22.9648 9.21875C22.9648 10.373 23.791 11.0938 24.9922 11.0938ZM25.3848 10.1035C24.8105 10.1035 24.2715 9.79297 24.2715 9.14844C24.2715 8.63281 24.6172 8.27539 25.373 8.27539H26.7207V8.96094C26.7207 9.63477 26.1406 10.1035 25.3848 10.1035ZM30.0195 4.80664H29.1465V5.84961H30.002V9.25977C30.002 10.502 30.418 11.041 31.9238 11.041C32.1875 11.041 32.4336 11.0176 32.5391 11V10.0039C32.4629 10.0156 32.3574 10.0156 32.2461 10.0156C31.5488 10.0156 31.2969 9.82812 31.2969 9.1543V5.84961H32.5039V4.80664H31.2969V3.30078H30.0195V4.80664ZM35.5156 11.0938C36.4297 11.0938 36.9746 10.7129 37.2441 10.2383H37.291V11H38.5273V6.78125C38.5273 5.39844 37.502 4.71289 36.125 4.71289C34.4727 4.71289 33.7695 5.5918 33.7168 6.64648H34.9355C34.9824 6.0957 35.3867 5.72656 36.0957 5.72656C36.8223 5.72656 37.2441 6.11914 37.2441 6.82812V7.41992H35.6738C34.25 7.41992 33.4883 8.11719 33.4883 9.21875C33.4883 10.373 34.3145 11.0938 35.5156 11.0938ZM35.9082 10.1035C35.334 10.1035 34.7949 9.79297 34.7949 9.14844C34.7949 8.63281 35.1406 8.27539 35.8965 8.27539H37.2441V8.96094C37.2441 9.63477 36.6641 10.1035 35.9082 10.1035ZM40.543 4.80664H39.6699V5.84961H40.5254V9.25977C40.5254 10.502 40.9414 11.041 42.4473 11.041C42.7109 11.041 42.957 11.0176 43.0625 11V10.0039C42.9863 10.0156 42.8809 10.0156 42.7695 10.0156C42.0723 10.0156 41.8203 9.82812 41.8203 9.1543V5.84961H43.0273V4.80664H41.8203V3.30078H40.543V4.80664ZM46.0391 11.0938C46.9531 11.0938 47.498 10.7129 47.7676 10.2383H47.8145V11H49.0508V6.78125C49.0508 5.39844 48.0254 4.71289 46.6484 4.71289C44.9961 4.71289 44.293 5.5918 44.2402 6.64648H45.459C45.5059 6.0957 45.9102 5.72656 46.6191 5.72656C47.3457 5.72656 47.7676 6.11914 47.7676 6.82812V7.41992H46.1973C44.7734 7.41992 44.0117 8.11719 44.0117 9.21875C44.0117 10.373 44.8379 11.0938 46.0391 11.0938ZM46.4316 10.1035C45.8574 10.1035 45.3184 9.79297 45.3184 9.14844C45.3184 8.63281 45.6641 8.27539 46.4199 8.27539H47.7676V8.96094C47.7676 9.63477 47.1875 10.1035 46.4316 10.1035ZM53.8086 11.0879C55.2676 11.0879 56.2168 10.0098 56.2168 8.1875V7.61328C56.2168 5.73828 55.2383 4.72461 53.8145 4.72461C53.0117 4.72461 52.3145 5.12891 52.0215 5.68555H51.9688V2.58008H50.668V11H51.9336V10.0566H51.9863C52.3203 10.6895 52.9238 11.0879 53.8086 11.0879ZM53.4863 10.0156C52.543 10.0156 51.957 9.35938 51.957 8.12305V7.67773C51.957 6.44727 52.543 5.79688 53.4863 5.79688C54.3184 5.79688 54.8926 6.45312 54.8926 7.67773V8.13477C54.8926 9.35352 54.3184 10.0156 53.4863 10.0156ZM57.5586 3.29492C57.5586 3.72266 57.9102 4.02734 58.332 4.02734C58.7539 4.02734 59.0996 3.72266 59.0996 3.29492C59.0996 2.86719 58.7539 2.55664 58.332 2.55664C57.9102 2.55664 57.5586 2.86719 57.5586 3.29492ZM57.6816 11H58.9824V4.80664H57.6816V11ZM61.0977 4.80664H60.2246V5.84961H61.0801V9.25977C61.0801 10.502 61.4961 11.041 63.002 11.041C63.2656 11.041 63.5117 11.0176 63.6172 11V10.0039C63.541 10.0156 63.4355 10.0156 63.3242 10.0156C62.627 10.0156 62.375 9.82812 62.375 9.1543V5.84961H63.582V4.80664H62.375V3.30078H61.0977V4.80664ZM65.0059 10.3145C65.0059 10.7598 65.3633 11.123 65.8086 11.123C66.248 11.123 66.6113 10.7598 66.6113 10.3145C66.6113 9.875 66.248 9.51172 65.8086 9.51172C65.3633 9.51172 65.0059 9.875 65.0059 10.3145ZM67.8711 8.15234C67.8711 9.88672 68.8613 11.1055 70.543 11.1055C71.9844 11.1055 72.8809 10.3672 73.0449 9.13086H71.8145C71.7266 9.61133 71.3398 10.0273 70.6191 10.0273C69.7344 10.0273 69.1777 9.30078 69.1777 8.15234V7.625C69.1777 6.48242 69.7109 5.7793 70.6133 5.7793C71.2285 5.7793 71.6738 6.23633 71.7793 6.75781H73.0098C72.9629 5.67383 72.0488 4.70117 70.543 4.70117C68.8672 4.70117 67.8711 5.90234 67.8711 7.5957V8.15234ZM76.8418 4.70117C75.0605 4.70117 74.082 5.96094 74.082 7.64258V8.14062C74.082 9.88672 75.0547 11.1055 76.8418 11.1055C78.6289 11.1055 79.5898 9.88672 79.5898 8.14062V7.64258C79.5898 5.95508 78.623 4.70117 76.8418 4.70117ZM76.8418 5.74414C77.8086 5.74414 78.2832 6.5293 78.2832 7.66016V8.13477C78.2832 9.24805 77.8145 10.0566 76.8418 10.0566C75.8691 10.0566 75.3945 9.24219 75.3945 8.13477V7.66016C75.3945 6.53516 75.875 5.74414 76.8418 5.74414ZM81.002 11H82.2969V7.16797C82.2969 6.27148 82.8359 5.82617 83.5098 5.82617C84.2305 5.82617 84.7109 6.25977 84.7109 7.17969V11H85.9766V7.17969C85.9766 6.35938 86.4277 5.82617 87.2012 5.82617C87.957 5.82617 88.3906 6.31836 88.3906 7.10352V11H89.6914V6.77539C89.6914 5.52734 88.9355 4.71289 87.6406 4.71289C86.6152 4.71289 85.9707 5.2168 85.7539 5.74414H85.7012C85.4727 5.11719 84.8984 4.71289 83.9434 4.71289C83.0645 4.71289 82.5254 5.19922 82.3438 5.63867H82.2793V4.80664H81.002V11Z" fill="#4E8B43"/>
</svg>
